<svg width="100" height="22" viewBox="0 0 100 22" fill="none" xmlns="http://www.w3.org/2000/svg">
<path fill-rule="evenodd" clip-rule="evenodd" d="M8.87725 8.85795C9.79759 7.94084 11.2918 7.94084 12.2122 8.85795C13.8108 10.4509 16.4006 10.4509 17.9992 8.85795C19.6005 7.26224 19.6005 4.67303 17.9992 3.07731C13.8816 -1.02577 7.20778 -1.02577 3.09022 3.07731C-1.03007 7.18312 -1.03007 13.842 3.09022 17.9478C7.20778 22.0509 13.8816 22.0509 17.9992 17.9478C19.6005 16.3521 19.6005 13.7629 17.9992 12.1672C16.4006 10.5742 13.8108 10.5742 12.2122 12.1672C11.2918 13.0843 9.79759 13.0843 8.87725 12.1672C7.95963 11.2528 7.95963 9.77234 8.87725 8.85795Z" fill="#313131"/>
<path d="M24 10.5263C24 11.844 22.9318 12.9122 21.6141 12.9122C20.2963 12.9122 19.2281 11.844 19.2281 10.5263C19.2281 9.20855 20.2963 8.14032 21.6141 8.14032C22.9318 8.14032 24 9.20855 24 10.5263Z" fill="#313131"/>
<path d="M38.87 11.2308H37.3081C37.0807 12.3463 36.1557 13.1519 34.9881 13.1519C33.593 13.1519 32.5922 12.0829 32.5922 10.5801C32.5922 9.09279 33.593 8.00829 34.9881 8.00829C36.1405 8.00829 37.0807 8.82941 37.293 9.92941H38.87C38.6426 8.02378 37.02 6.62941 34.9881 6.62941C32.6832 6.62941 31 8.28716 31 10.5801C31 12.8731 32.6832 14.5308 34.9881 14.5308C37.02 14.5308 38.6426 13.1519 38.87 11.2308Z" fill="#313131"/>
<path d="M44.0099 6.62941C41.705 6.62941 40.0219 8.28716 40.0219 10.5801C40.0219 12.8731 41.705 14.5308 44.0099 14.5308C46.3148 14.5308 47.9829 12.8731 47.9829 10.5801C47.9829 8.28716 46.3148 6.62941 44.0099 6.62941ZM43.9948 8.00829C45.3898 8.00829 46.3907 9.09279 46.3907 10.5801C46.3907 12.0829 45.3898 13.1519 43.9948 13.1519C42.6149 13.1519 41.6141 12.0829 41.6141 10.5801C41.6141 9.09279 42.6149 8.00829 43.9948 8.00829Z" fill="#313131"/>
<path d="M56.3819 4.87871C56.5336 4.87871 56.761 4.9097 56.943 4.98716V3.59279C56.761 3.54632 56.5336 3.53082 56.3668 3.53082C54.9414 3.53082 53.9254 4.44491 53.9254 5.74632V6.76885H52.8488H51.5447V5.74632C51.5447 5.21956 51.9238 4.87871 52.4394 4.87871C52.6062 4.87871 52.8185 4.9097 53.0156 4.98716V3.59279C52.8185 3.54632 52.591 3.53082 52.4242 3.53082C50.9988 3.53082 49.998 4.44491 49.998 5.74632V6.76885H48.9214V8.10125H49.998V14.3914H51.5447V8.10125H52.8488H53.9254V14.3914H55.4721V8.10125H56.943V6.76885H55.4721V5.74632C55.4721 5.21956 55.8512 4.87871 56.3819 4.87871Z" fill="#313131"/>
<path d="M65.7304 10.5956C65.7153 8.28716 64.0624 6.62941 61.7575 6.62941C59.4526 6.62941 57.7694 8.28716 57.7694 10.5801C57.7694 12.8731 59.4526 14.5308 61.7575 14.5308C63.5923 14.5308 65.1845 13.3224 65.6091 11.6336H64.0321C63.744 12.5477 62.8341 13.2294 61.7727 13.2294C60.4837 13.2294 59.4981 12.3463 59.301 11.0759H65.6849C65.7153 10.921 65.7304 10.7505 65.7304 10.5956ZM61.7727 7.93082C63.0009 7.93082 63.9866 8.72096 64.2444 9.85195H59.3465C59.6194 8.70547 60.5596 7.93082 61.7727 7.93082Z" fill="#313131"/>
<path d="M74.8559 10.5956C74.8408 8.28716 73.1879 6.62941 70.883 6.62941C68.5781 6.62941 66.895 8.28716 66.895 10.5801C66.895 12.8731 68.5781 14.5308 70.883 14.5308C72.7179 14.5308 74.31 13.3224 74.7346 11.6336H73.1576C72.8695 12.5477 71.9597 13.2294 70.8982 13.2294C69.6093 13.2294 68.6236 12.3463 68.4265 11.0759H74.8105C74.8408 10.921 74.8559 10.7505 74.8559 10.5956ZM70.8982 7.93082C72.1265 7.93082 73.1121 8.72096 73.3699 9.85195H68.472C68.7449 8.70547 69.6851 7.93082 70.8982 7.93082Z" fill="#313131"/>
<path d="M76.4602 3.67026V14.3914H78.0069V3.67026H76.4602Z" fill="#313131"/>
<path d="M81.8212 4.70829C81.8212 4.15054 81.4118 3.77871 80.8356 3.77871C80.2442 3.77871 79.8499 4.15054 79.8499 4.70829C79.8499 5.25054 80.2442 5.63787 80.8356 5.63787C81.4118 5.63787 81.8212 5.25054 81.8212 4.70829ZM80.0622 6.76885V14.3914H81.6089V6.76885H80.0622Z" fill="#313131"/>
<path d="M87.5465 6.62941C86.5154 6.62941 85.6814 7.0942 85.1961 7.91533V6.76885H83.6494V14.3914H85.1961V9.92941C85.1961 8.70547 85.9391 7.89984 87.0916 7.89984C88.2137 7.89984 88.9416 8.70547 88.9416 9.92941V14.3914H90.5034V9.71251C90.5034 7.86885 89.26 6.62941 87.5465 6.62941Z" fill="#313131"/>
<path d="M100 10.5956C99.9848 8.28716 98.332 6.62941 96.0271 6.62941C93.7222 6.62941 92.039 8.28716 92.039 10.5801C92.039 12.8731 93.7222 14.5308 96.0271 14.5308C97.8619 14.5308 99.4541 13.3224 99.8787 11.6336H98.3017C98.0135 12.5477 97.1037 13.2294 96.0423 13.2294C94.7533 13.2294 93.7677 12.3463 93.5706 11.0759H99.9545C99.9848 10.921 100 10.7505 100 10.5956ZM96.0423 7.93082C97.2705 7.93082 98.2562 8.72096 98.514 9.85195H93.616C93.889 8.70547 94.8291 7.93082 96.0423 7.93082Z" fill="#313131"/>
</svg>
