<svg width="90" height="90" viewBox="0 0 90 90" fill="none" xmlns="http://www.w3.org/2000/svg">
<circle cx="45" cy="45" r="45" fill="#791E3F"/>
<path d="M50.75 60.3333H56.5C57.5167 60.3333 58.4917 59.9295 59.2106 59.2106C59.9295 58.4917 60.3333 57.5167 60.3333 56.5V50.75C60.3333 50.2417 60.5353 49.7542 60.8947 49.3947C61.2542 49.0353 61.7417 48.8333 62.25 48.8333C62.7583 48.8333 63.2458 49.0353 63.6053 49.3947C63.9647 49.7542 64.1667 50.2417 64.1667 50.75V56.5C64.1667 58.5333 63.3589 60.4834 61.9212 61.9211C60.4834 63.3589 58.5333 64.1667 56.5 64.1667H33.5C31.4667 64.1667 29.5166 63.3589 28.0788 61.9211C26.6411 60.4834 25.8333 58.5333 25.8333 56.5V50.75C25.8333 50.2417 26.0353 49.7542 26.3947 49.3947C26.7542 49.0353 27.2417 48.8333 27.75 48.8333C28.2583 48.8333 28.7458 49.0353 29.1053 49.3947C29.4647 49.7542 29.6667 50.2417 29.6667 50.75V56.5C29.6667 57.5167 30.0705 58.4917 30.7894 59.2106C31.5083 59.9295 32.4833 60.3333 33.5 60.3333H39.25C39.7583 60.3333 40.2458 60.5353 40.6053 60.8947C40.9647 61.2541 41.1667 61.7417 41.1667 62.25C41.1667 62.7583 40.9647 63.2458 40.6053 63.6053C40.2458 63.9647 39.7583 64.1667 39.25 64.1667H50.75C50.2417 64.1667 49.7542 63.9647 49.3947 63.6053C49.0353 63.2458 48.8333 62.7583 48.8333 62.25C48.8333 61.7417 49.0353 61.2541 49.3947 60.8947C49.7542 60.5353 50.2417 60.3333 50.75 60.3333V60.3333ZM29.6667 39.25C29.6667 39.7583 29.4647 40.2458 29.1053 40.6053C28.7458 40.9647 28.2583 41.1667 27.75 41.1667C27.2417 41.1667 26.7542 40.9647 26.3947 40.6053C26.0353 40.2458 25.8333 39.7583 25.8333 39.25V33.5C25.8333 31.4667 26.6411 29.5166 28.0788 28.0788C29.5166 26.6411 31.4667 25.8333 33.5 25.8333H39.25C39.7583 25.8333 40.2458 26.0353 40.6053 26.3947C40.9647 26.7542 41.1667 27.2417 41.1667 27.75C41.1667 28.2583 40.9647 28.7458 40.6053 29.1053C40.2458 29.4647 39.7583 29.6667 39.25 29.6667H33.5C32.4833 29.6667 31.5083 30.0705 30.7894 30.7894C30.0705 31.5083 29.6667 32.4833 29.6667 33.5V39.25ZM60.3333 39.25V33.5C60.3333 32.4833 59.9295 31.5083 59.2106 30.7894C58.4917 30.0705 57.5167 29.6667 56.5 29.6667H50.75C50.2417 29.6667 49.7542 29.4647 49.3947 29.1053C49.0353 28.7458 48.8333 28.2583 48.8333 27.75C48.8333 27.2417 49.0353 26.7542 49.3947 26.3947C49.7542 26.0353 50.2417 25.8333 50.75 25.8333H56.5C58.5333 25.8333 60.4834 26.6411 61.9212 28.0788C63.3589 29.5166 64.1667 31.4667 64.1667 33.5V39.25C64.1667 39.7583 63.9647 40.2458 63.6053 40.6053C63.2458 40.9647 62.7583 41.1667 62.25 41.1667C61.7417 41.1667 61.2542 40.9647 60.8947 40.6053C60.5353 40.2458 60.3333 39.7583 60.3333 39.25Z" fill="#F5F5F5"/>
</svg>
